<svg id="visual" viewBox="0 0 540 960" width="540" height="960" xmlns="http://www.w3.org/2000/svg" xmlns:xlink="http://www.w3.org/1999/xlink" version="1.1"><g stroke-width="2" stroke-linejoin="bevel"><path d="M237 473L142 513L240 630Z" fill="#00584d" stroke="#001122"></path><path d="M142 513L110 601L240 630Z" fill="#003844" stroke="#001122"></path><path d="M240 630L377 625L237 473Z" fill="#00584d" stroke="#001122"></path><path d="M394 358L235 347L237 473Z" fill="#021929" stroke="#001122"></path><path d="M237 473L161 342L142 513Z" fill="#015f4a" stroke="#001122"></path><path d="M110 601L142 750L240 630Z" fill="#00504e" stroke="#001122"></path><path d="M240 630L282 762L377 625Z" fill="#021929" stroke="#001122"></path><path d="M235 347L161 342L237 473Z" fill="#00484c" stroke="#001122"></path><path d="M142 513L0 603L110 601Z" fill="#003844" stroke="#001122"></path><path d="M0 452L0 603L142 513Z" fill="#021929" stroke="#001122"></path><path d="M110 601L0 750L142 750Z" fill="#003844" stroke="#001122"></path><path d="M142 750L282 762L240 630Z" fill="#021929" stroke="#001122"></path><path d="M161 342L0 452L142 513Z" fill="#00484c" stroke="#001122"></path><path d="M282 762L432 678L377 625Z" fill="#021929" stroke="#001122"></path><path d="M377 625L449 459L237 473Z" fill="#00303e" stroke="#001122"></path><path d="M540 559L449 459L377 625Z" fill="#00484c" stroke="#001122"></path><path d="M449 459L394 358L237 473Z" fill="#00584d" stroke="#001122"></path><path d="M282 762L312 816L432 678Z" fill="#00303e" stroke="#001122"></path><path d="M134 861L312 816L282 762Z" fill="#004049" stroke="#001122"></path><path d="M0 603L0 750L110 601Z" fill="#015f4a" stroke="#001122"></path><path d="M142 750L134 861L282 762Z" fill="#00504e" stroke="#001122"></path><path d="M161 342L0 342L0 452Z" fill="#012131" stroke="#001122"></path><path d="M232 225L147 240L161 342Z" fill="#003844" stroke="#001122"></path><path d="M161 342L147 240L0 342Z" fill="#003844" stroke="#001122"></path><path d="M232 225L161 342L235 347Z" fill="#00584d" stroke="#001122"></path><path d="M0 838L134 861L142 750Z" fill="#003844" stroke="#001122"></path><path d="M432 678L540 559L377 625Z" fill="#00484c" stroke="#001122"></path><path d="M449 459L540 322L394 358Z" fill="#012131" stroke="#001122"></path><path d="M540 764L540 559L432 678Z" fill="#00303e" stroke="#001122"></path><path d="M394 358L232 225L235 347Z" fill="#00303e" stroke="#001122"></path><path d="M540 559L540 508L449 459Z" fill="#012131" stroke="#001122"></path><path d="M0 750L0 838L142 750Z" fill="#012131" stroke="#001122"></path><path d="M409 960L420 866L312 816Z" fill="#00504e" stroke="#001122"></path><path d="M312 816L420 866L432 678Z" fill="#00303e" stroke="#001122"></path><path d="M420 866L540 764L432 678Z" fill="#003844" stroke="#001122"></path><path d="M540 508L540 322L449 459Z" fill="#002838" stroke="#001122"></path><path d="M394 358L440 207L232 225Z" fill="#021929" stroke="#001122"></path><path d="M0 161L0 209L147 240Z" fill="#004049" stroke="#001122"></path><path d="M147 240L0 209L0 342Z" fill="#003844" stroke="#001122"></path><path d="M125 960L241 960L134 861Z" fill="#004049" stroke="#001122"></path><path d="M134 861L241 960L312 816Z" fill="#015f4a" stroke="#001122"></path><path d="M540 322L440 207L394 358Z" fill="#002838" stroke="#001122"></path><path d="M232 225L93 98L147 240Z" fill="#00303e" stroke="#001122"></path><path d="M0 960L125 960L134 861Z" fill="#001122" stroke="#001122"></path><path d="M440 207L298 127L232 225Z" fill="#00303e" stroke="#001122"></path><path d="M93 98L0 161L147 240Z" fill="#004049" stroke="#001122"></path><path d="M241 960L409 960L312 816Z" fill="#015f4a" stroke="#001122"></path><path d="M420 866L540 880L540 764Z" fill="#001122" stroke="#001122"></path><path d="M0 838L0 960L134 861Z" fill="#00484c" stroke="#001122"></path><path d="M540 960L540 880L420 866Z" fill="#003844" stroke="#001122"></path><path d="M440 207L382 118L298 127Z" fill="#002838" stroke="#001122"></path><path d="M540 322L540 221L440 207Z" fill="#002838" stroke="#001122"></path><path d="M540 148L382 118L440 207Z" fill="#00303e" stroke="#001122"></path><path d="M298 127L93 98L232 225Z" fill="#00584d" stroke="#001122"></path><path d="M148 0L93 98L298 127Z" fill="#012131" stroke="#001122"></path><path d="M540 221L540 148L440 207Z" fill="#00484c" stroke="#001122"></path><path d="M409 960L540 960L420 866Z" fill="#003844" stroke="#001122"></path><path d="M290 0L148 0L298 127Z" fill="#021929" stroke="#001122"></path><path d="M93 98L0 0L0 161Z" fill="#00504e" stroke="#001122"></path><path d="M290 0L298 127L382 118Z" fill="#001122" stroke="#001122"></path><path d="M412 0L290 0L382 118Z" fill="#002838" stroke="#001122"></path><path d="M540 148L412 0L382 118Z" fill="#021929" stroke="#001122"></path><path d="M148 0L0 0L93 98Z" fill="#00303e" stroke="#001122"></path><path d="M540 148L540 0L412 0Z" fill="#001122" stroke="#001122"></path></g></svg>